<svg width="393" height="56" viewBox="0 0 393 56" fill="none" xmlns="http://www.w3.org/2000/svg">
<g clip-path="url(#clip0_589_2515)">
<path d="M124.358 28.8594C124.358 35.4042 124.661 40.373 124.661 40.373C124.661 40.373 122.398 35.9372 119.005 30.3667L100.689 0.875H89.8284V55.1188H99.9322V27.2834C99.9322 20.7329 99.5539 15.7698 99.5539 15.7698C99.5539 15.7698 101.818 20.1311 105.21 25.7761L123.527 55.1188H134.381V0.875H124.358V28.8594Z" fill="#1B8751"/>
<path d="M166.704 42.3274C165.799 45.7889 162.48 47.7432 158.108 47.7432C152.382 47.7432 148.462 44.2072 147.631 37.9604H176.2C176.2 37.7311 176.349 36.0806 176.349 34.4989C176.349 25.0943 170.166 15.4662 157.351 15.4662C144.537 15.4662 138.278 25.3293 138.278 35.5591C138.278 45.7889 144.989 55.7207 157.878 55.7207C167.524 55.7207 174.836 50.8265 176.12 42.3274H166.698H166.704ZM157.345 22.6873C162.698 22.6873 165.713 26.1488 166.091 30.8138H147.924C149.127 25.6216 152.445 22.6873 157.345 22.6873Z" fill="#1B8751"/>
<path d="M211.199 16.068H200.872L193.256 27.507L185.565 16.068H175.237L188.052 35.3298L174.785 55.1189H185.261L193.25 43.1584H193.256L201.17 55.1189H211.727L198.459 35.2553L211.199 16.068Z" fill="#1B8751"/>
<path d="M227.848 4.56012H218.352V16.0737H212.523V23.971H218.352V42.7801C218.352 51.5084 224.083 55.7207 232.146 55.7207C234.106 55.7207 235.768 55.4972 236.972 55.1934V46.9924C235.911 47.2961 234.633 47.5196 233.275 47.5196C230.112 47.5196 227.848 45.4851 227.848 41.8001V23.971H236.972V16.0737H227.848V4.56012Z" fill="#1B8751"/>
<path d="M268.83 20.5094C266.567 17.4949 262.349 15.4662 257.523 15.4662C246.061 15.4662 238.978 23.6672 238.978 35.5533C238.978 47.4451 245.987 55.7206 257.672 55.7206C262.727 55.7206 267.019 53.4626 268.83 50.5284V55.1189H278.327V0.875061H268.83V20.5094ZM259.03 47.5139C252.772 47.5139 248.629 42.6998 248.629 35.5533C248.629 28.4067 252.772 23.6672 259.03 23.6672C265.289 23.6672 269.432 28.4067 269.432 35.5533C269.432 42.6998 265.289 47.5139 259.03 47.5139Z" fill="#1B8751"/>
<path d="M302.041 15.4662C290.43 15.4662 282.063 23.9653 282.063 35.5534C282.063 47.1414 290.505 55.715 302.041 55.715C313.578 55.715 322.019 47.1357 322.019 35.5534C322.019 23.971 313.652 15.4662 302.041 15.4662ZM302.041 47.5139C295.783 47.5139 291.788 42.5509 291.788 35.5534C291.788 28.5558 296.012 23.6673 302.041 23.6673C308.07 23.6673 312.368 28.4813 312.368 35.5534C312.368 42.6254 308.299 47.5139 302.041 47.5139Z" fill="#1B8751"/>
<path d="M344.634 15.4662C333.023 15.4662 324.656 23.9653 324.656 35.5534C324.656 47.1414 333.098 55.715 344.634 55.715C356.171 55.715 364.612 47.1357 364.612 35.5534C364.612 23.971 356.245 15.4662 344.634 15.4662ZM344.634 47.5139C338.376 47.5139 334.381 42.5509 334.381 35.5534C334.381 28.5558 338.605 23.6673 344.634 23.6673C350.663 23.6673 354.961 28.4813 354.961 35.5534C354.961 42.6254 350.892 47.5139 344.634 47.5139Z" fill="#1B8751"/>
<path d="M389.68 15.4662C384.929 15.4662 379.656 18.773 377.92 23.2145V16.068H368.423V55.119H377.92V40.7456C377.92 29.0086 383.049 24.269 388.551 24.269C389.983 24.269 391.187 24.4926 392.316 24.7161V15.6898C391.565 15.5408 390.809 15.4662 389.68 15.4662Z" fill="#1B8751"/>
<path d="M21.9153 8.58891V0.875H11.8861V14.8873L0 22.3547L5.33555 30.8481L11.9147 26.716V55.1386H56.4674V26.716L63.0466 30.8481L68.3822 22.3547L34.1911 0.875L21.9153 8.58891Z" fill="#1B8751"/>
</g>
<defs>
<clipPath id="clip0_589_2515">
<rect width="392.434" height="56" fill="#1B8751"/>
</clipPath>
</defs>
</svg>
